<!DOCTYPE svg PUBLIC "-//W3C//DTD SVG 1.1//EN" "http://www.w3.org/Graphics/SVG/1.1/DTD/svg11.dtd">
<!-- Uploaded to: SVG Repo, www.svgrepo.com, Transformed by: SVG Repo Mixer Tools -->
<svg width="800px" height="800px" viewBox="0 0 1024 1024" class="icon" version="1.1" xmlns="http://www.w3.org/2000/svg" fill="#000000">
<g id="SVGRepo_bgCarrier" stroke-width="0"/>
<g id="SVGRepo_tracerCarrier" stroke-linecap="round" stroke-linejoin="round"/>
<g id="SVGRepo_iconCarrier">
<path d="M764.077495 365.4687c25.787576-28.703601 41.628106-66.514662 41.628106-108.047547 0-89.337066-72.67538-162.023709-162.023709-162.02371S481.658182 168.084087 481.658182 257.421153h45.226039c0-64.405459 52.403475-116.797671 116.797671-116.797671s116.797671 52.392212 116.79767 116.797671-52.403475 116.797671-116.79767 116.79767c-20.647671 0-40.964628-5.4655-58.741325-15.822099l-22.745613 39.086822c24.666421 14.365111 52.844769 21.961316 81.486938 21.961316 31.034988 0 59.955653-8.924184 84.62105-24.116595 2.73275 4.021822 144.402643 55.220183 154.273921 292.470796 0.507847 12.15659 10.511207 21.674628 22.568481 21.674628 0.330715 0 0.639928-0.011263 0.971667-0.022526 12.477067-0.51911 22.171213-11.052842 21.641864-23.529908-9.692098-233.333227-126.929016-303.970051-163.68138-320.452557z" fill="#4fddbf"/>
<path d="M541.966052 518.12181c29.268786-33.91313 47.104868-77.952485 47.104868-126.15803 0-106.683731-86.809093-193.481562-193.492825-193.481562S202.107796 285.279025 202.107796 391.962756c0 48.204521 17.828915 92.240805 47.090534 126.153935-51.365255 30.577311-153.310445 121.144064-153.310445 358.758155 0 12.488329 10.113939 22.613531 22.613531 22.613531s22.613531-10.125202 22.613531-22.613531c0-244.454669 113.552978-312.788776 143.593774-326.583583 31.432256 22.083159 69.622154 35.163294 110.869374 35.163294 41.246196 0 79.440191-13.080135 110.876542-35.163294 30.045915 13.80607 143.609132 82.134033 143.609132 326.583583 0 12.488329 10.113939 22.613531 22.613531 22.613531 12.498568 0 22.613531-10.125202 22.613531-22.613531-0.001024-237.6059-101.951333-328.172653-153.324779-358.753036zM247.333835 391.962756c0-81.752124 66.492137-148.255523 148.24426-148.255523s148.265762 66.5034 148.265762 148.255523-66.514662 148.265762-148.265762 148.265762-148.244261-66.513638-148.24426-148.265762z" fill="#1fa588"/>
</g>
</svg>