<!DOCTYPE svg PUBLIC "-//W3C//DTD SVG 1.1//EN" "http://www.w3.org/Graphics/SVG/1.1/DTD/svg11.dtd">
<!-- Uploaded to: SVG Repo, www.svgrepo.com, Transformed by: SVG Repo Mixer Tools -->
<svg width="800px" height="800px" viewBox="0 0 1024 1024" class="icon" version="1.1" xmlns="http://www.w3.org/2000/svg" fill="#000000">
<g id="SVGRepo_bgCarrier" stroke-width="0"/>
<g id="SVGRepo_tracerCarrier" stroke-linecap="round" stroke-linejoin="round"/>
<g id="SVGRepo_iconCarrier">
<path d="M206.613915 531.8173m-47.488825 0a47.488825 47.488825 0 1 0 94.97765 0 47.488825 47.488825 0 1 0-94.97765 0Z" fill="#4fddbf"/>
<path d="M420.314141 531.8173m-47.488825 0a47.488825 47.488825 0 1 0 94.97765 0 47.488825 47.488825 0 1 0-94.97765 0Z" fill="#4fddbf"/>
<path d="M634.013343 531.8173m-47.488826 0a47.488825 47.488825 0 1 0 94.977651 0 47.488825 47.488825 0 1 0-94.977651 0Z" fill="#4fddbf"/>
<path d="M800.224743 341.861999m-47.488825 0a47.488825 47.488825 0 1 0 94.97765 0 47.488825 47.488825 0 1 0-94.97765 0Z" fill="#4fddbf"/>
<path d="M956.638584 591.804694c-3.744349-17.228918-4.451853-34.375926-4.451853-59.987394V189.900011c0-34.040092-27.698146-61.738237-61.738237-61.738237H434.562529c-34.040092 0-61.738237 27.698146-61.738237 61.738237v80.728239H135.380165c-39.280337 0-71.23375 31.953413-71.233749 71.233749v379.910602c0 39.280337 31.953413 71.23375 71.233749 71.23375H626.569696c8.208489 0 15.837458 4.429328 20.417297 11.849425 20.799206 33.71552 47.001456 59.279889 87.592366 85.458589 5.959013 3.861072 12.649079 5.762427 19.32686 5.762426 7.60542 0 15.188315-2.469611 21.657222-7.385284 12.046011-9.147391 16.950422-24.346969 12.486281-38.712081-8.115315-26.132625-11.570928-50.271746-11.570928-80.716975V555.561201h51.036588c4.846049 0 9.425888 2.562785 11.941575 6.67778 16.718 27.280401 35.732574 47.697698 61.656326 66.201354 6.237509 4.451853 13.46102 6.690067 20.707057 6.690066 6.794503 0 13.587982-1.970979 19.581807-5.912937 12.418705-8.172653 18.401267-22.862335 15.236437-37.41277zM734.579359 832.147439c-20.208425-15.987969-34.990257-32.474571-47.175516-52.230438-13.298223-21.541523-36.045883-34.399475-60.833123-34.399475H135.380165c-13.08935 0-23.744925-10.654551-23.744924-23.743901V341.861999c0-13.08935 10.654551-23.743901 23.744924-23.7439h569.865903c13.08935 0 23.744925 10.654551 23.744925 23.7439v427.400452c0 23.093734 1.739581 43.151647 5.588366 62.884988z m145.376358-294.718223c-11.095845-18.10946-31.187547-29.355816-52.439311-29.355816h-51.036588V341.861999c0-39.280337-31.953413-71.23375-71.23375-71.233749H420.314141v-80.728239c0-7.860368 6.388021-14.249412 14.249412-14.249412h455.885965c7.860368 0 14.249412 6.388021 14.249412 14.249412v341.917289c0 13.032012 0.127986 25.923753 1.112963 38.82778-9.705409-9.657286-17.983522-20.358936-25.856176-33.215864z" fill="#1fa588"/>
</g>
</svg>