<?xml version="1.0" encoding="UTF-8"?>
<svg width="924px" height="180px" viewBox="0 0 924 180" version="1.1" xmlns="http://www.w3.org/2000/svg" xmlns:xlink="http://www.w3.org/1999/xlink">
    <title>Group 3</title>
    <g id="Page-1" stroke="none" stroke-width="1" fill="none" fill-rule="evenodd">
        <g id="Logos+text" transform="translate(-350.000000, -1989.000000)" fill="#000000">
            <g id="Group-3" transform="translate(350.000000, 1989.000000)">
                <path d="M266.35,142 L266.35,100.69 L286.07,100.69 C316.33,100.69 335.54,92.7 335.54,61.25 C335.54,29.97 316.33,22.15 286.07,22.15 L252.41,22.15 L252.41,142 L266.35,142 Z M286.24,88.79 L266.35,88.79 L266.35,34.05 L286.24,34.05 C306.64,34.05 321.6,37.79 321.6,61.25 C321.6,85.05 306.64,88.79 286.24,88.79 Z M392.66,143.7 C419.52,143.7 437.03,124.32 437.03,99.67 C437.03,75.19 419.52,55.81 392.66,55.81 C365.63,55.81 347.95,75.19 347.95,99.67 C347.95,124.32 365.63,143.7 392.66,143.7 Z M392.66,131.8 C372.6,131.8 361.89,117.35 361.89,99.67 C361.89,82.16 372.6,67.71 392.66,67.71 C412.55,67.71 423.26,82.16 423.26,99.67 C423.26,117.35 412.55,131.8 392.66,131.8 Z M506.73,142 L506.73,130.1 L483.1,130.1 L483.1,27.08 C483.1,19.09 479.36,14.67 471.54,15.35 L451.82,17.05 L451.82,28.95 L469.33,27.42 L469.33,130.1 L445.53,130.1 L445.53,142 L506.73,142 Z M560.96,164.78 L560.96,141.15 L597.68,57.51 L582.55,57.51 L556.03,123.3 L556.03,129.76 L551.95,129.76 L551.95,123.3 L525.43,57.51 L510.13,57.51 L547.02,141.15 L547.02,162.91 L516.59,161.38 L516.59,173.28 L549.23,174.81 C557.22,175.15 560.96,171.24 560.96,164.78 Z M627.43,142 L627.43,104.77 C627.43,82.67 637.46,67.71 654.29,67.71 C668.06,67.71 671.63,75.7 671.63,92.02 L671.63,142 L685.57,142 L685.57,104.77 C685.57,82.67 695.6,67.71 712.43,67.71 C726.2,67.71 729.77,75.7 729.77,92.02 L729.77,142 L743.71,142 L743.71,88.79 C743.71,69.92 735.21,55.81 717.53,55.81 C699.51,55.81 690.67,66.18 687.27,81.48 L684.72,81.48 C682.85,66.35 674.69,55.81 659.39,55.81 C641.37,55.81 632.53,66.18 629.13,81.48 L625.22,81.48 L627.43,71.96 L627.43,57.51 L613.49,57.51 L613.49,142 L627.43,142 Z M805.59,143.7 C832.45,143.7 842.65,125.51 845.88,112.42 L831.94,112.42 C828.88,125.34 819.53,132.14 805.59,132.14 C784.68,132.14 777.03,118.37 776.18,102.39 L842.99,102.39 L842.99,96.95 C842.99,70.94 827.35,55.81 803.55,55.81 C779.58,55.81 762.58,71.45 762.58,98.65 C762.58,122.96 775.33,143.7 805.59,143.7 Z M829.39,91.85 L776.18,91.85 C776.18,78.25 786.89,67.54 803.55,67.54 C820.38,67.54 829.39,78.25 829.39,91.85 Z M879.03,142 L879.03,67.88 L923.74,69.41 L923.74,57.51 L876.82,55.98 C868.83,55.64 865.09,59.55 865.09,67.54 L865.09,142 L879.03,142 Z" id="Polymer" fill-rule="nonzero"></path>
                <path d="M2.57333475,42.2408101 L18.8949098,53.9945863 L61.0751707,23.5352226 L82.0330662,38.5462505 L98.4374005,26.7491646 C86.286175,18.0384975 73.249185,8.72089293 61.0673745,4.54747351e-13 L61.0673745,4.54747351e-13 L2.57333475,42.2408101 Z" id="Path-Copy"></path>
                <polygon id="Path-Copy-2" points="111.644107 59.8468119 209.896199 130.459698 209.896199 106.9738 128.040645 48.062358"></polygon>
                <path d="M0,73.0274028 L81.6120732,131.794479 C87.0735879,127.862919 92.5440981,123.937375 98.0140087,120.012431 L98.0140087,120.012431 L0,49.5066168 L0,73.0274028 Z" id="Path-Copy-3"></path>
                <path d="M148.819829,156.464777 L128.168982,141.643831 L111.782639,153.451744 C124.115575,162.298957 136.465903,171.14617 148.825226,180 L148.825226,180 L207.342055,137.74355 L191.024677,125.988571 L148.819829,156.464777 Z" id="Path-Copy-4"></path>
                <path d="M46.1611036,73.7895335 C51.6184204,77.7186873 57.0733383,81.6490442 62.5318545,85.5794011 L62.5318545,85.5794011 L148.819829,23.5328165 L190.99829,53.9921802 L207.316267,42.2329902 L148.825226,0 L46.1611036,73.7895335 Z" id="Path-Copy-5"></path>
                <path d="M176.321107,73.702914 C181.723251,77.5953749 187.131991,81.4854298 192.535934,85.3893196 L192.535934,85.3893196 L209.896199,72.9245422 L209.896199,49.5 C198.701503,57.5652319 187.525398,65.6430958 176.321107,73.702914 L176.321107,73.702914 Z" id="Path-Copy-6"></path>
                <path d="M9.09494702e-13,107.070044 L9.09494702e-13,130.475338 C11.1383235,122.452212 22.2052822,114.552399 33.3466042,106.546718 L33.3466042,106.546718 C27.8898872,102.61576 22.4505616,98.6992381 17.0136348,94.790536 L17.0136348,94.790536 C11.3380253,98.8814998 5.66721356,102.977877 9.09494702e-13,107.070044 L9.09494702e-13,107.070044 Z" id="Path-Copy-7"></path>
                <path d="M61.0703731,156.467785 L18.8829157,125.994586 L2.56553858,137.753776 L61.0673745,180 L163.132991,106.48416 C157.708658,102.576661 152.302316,98.6908167 146.900772,94.8049726 L146.900772,94.8049726 L61.0703731,156.467785 Z" id="Path-Copy-8"></path>
            </g>
        </g>
    </g>
</svg>